<svg xmlns="http://www.w3.org/2000/svg" viewBox="0 0 320 72" role="img" aria-labelledby="title">
  <title id="title">YouTube</title>
  <path fill="#111111" d="M103.8 20.2h9.7l6.3 24.3 6.2-24.3h9.7l-11.4 36.6v13h-9.1v-13l-11.4-36.6Zm39.5 12.2c-7.2 0-11.4 4.2-11.4 11.8v8.2c0 7.7 4.2 11.8 11.4 11.8s11.4-4.1 11.4-11.8v-8.2c0-7.6-4.2-11.8-11.4-11.8Zm3.1 20.8c0 2.7-1.1 4.1-3.1 4.1s-3.1-1.4-3.1-4.1V43.4c0-2.7 1.1-4.1 3.1-4.1s3.1 1.4 3.1 4.1v9.8Zm29.5 10.4h-7.4v-3.4c-2.1 2.6-4.1 4-7.1 4-4.1 0-5.9-2.8-5.9-7.2V33h8.3v22c0 1.5.6 2.2 1.9 2.2 1 0 1.9-.5 2.8-1.5V33h7.4v30.6Zm14.1 0h-8.8V28.3h-9.2v-8.1h27.2v8.1H190v35.3Zm25.3-31.2c-7.2 0-11.4 4.2-11.4 11.8v8.2c0 7.7 4.2 11.8 11.4 11.8s11.4-4.1 11.4-11.8v-8.2c0-7.6-4.2-11.8-11.4-11.8Zm3.1 20.8c0 2.7-1.1 4.1-3.1 4.1s-3.1-1.4-3.1-4.1V43.4c0-2.7 1.1-4.1 3.1-4.1s3.1 1.4 3.1 4.1v9.8Zm29.5 10.4h-7.4v-3.4c-2.1 2.6-4.1 4-7.1 4-4.1 0-5.9-2.8-5.9-7.2V33h8.3v22c0 1.5.6 2.2 1.9 2.2 1 0 1.9-.5 2.8-1.5V33h7.4v30.6Zm15-31.2c-2.9 0-5.1 1.5-7.1 4V20.2h-8.3v43.4h7.3v-3c2.1 2.4 4.1 3.6 7 3.6 4.7 0 7.1-3.7 7.1-10.4V43.2c0-6.8-2.3-10.8-7-10.8Zm-2.3 22c0 2.1-.7 3-2.2 3-.8 0-1.7-.4-2.6-1.2V40.6c.9-.8 1.7-1.2 2.5-1.2 1.5 0 2.3.9 2.3 3.1v11.9Zm29-2.6v2.1c0 6.5-3.4 10.3-11.3 10.3-7.5 0-11.3-4.1-11.3-11.8v-8.2c0-7.6 4.1-11.8 11.3-11.8 7.5 0 11.3 4.1 11.3 11.8v5.2h-14.3v4.5c0 2.3 1 3.4 3 3.4s3-1.1 3-3.4v-2.1h8.3Zm-14.3-8.4h6.1v-1c0-2.3-1-3.4-3-3.4s-3.1 1.1-3.1 3.4v1Z"/>
  <path fill="#111111" d="M76 21.8c-.9-3.4-3.6-6.1-7-7-6.2-1.7-31-1.7-31-1.7s-24.8 0-31 1.7c-3.4.9-6.1 3.6-7 7C-1.7 28-1.7 41-1.7 41s0 13 1.7 19.2c.9 3.4 3.6 6.1 7 7 6.2 1.7 31 1.7 31 1.7s24.8 0 31-1.7c3.4-.9 6.1-3.6 7-7C77.7 54 77.7 41 77.7 41s0-13-1.7-19.2Z" transform="translate(7 -5)"/>
  <path fill="#f5f0e6" d="M31.5 51.3 52.1 39 31.5 26.7v24.6Z"/>
</svg>
